<mxfile host="drawio-plugin" modified="2023-06-23T11:44:50.813Z" agent="5.0 (Macintosh; Intel Mac OS X 10_15_7) AppleWebKit/537.36 (KHTML, like Gecko) Chrome/104.0.5112.102 Safari/537.36" etag="173Mh5oyjkr92qbw3Tf8" version="20.5.3" type="embed"><diagram id="HQY6SmP0SjB_70GgLxDh" name="Page-1"><mxGraphModel dx="1226" dy="1114" grid="1" gridSize="10" guides="1" tooltips="1" connect="1" arrows="1" fold="1" page="1" pageScale="1" pageWidth="3300" pageHeight="4681" math="0" shadow="0"><root><mxCell id="0"/><mxCell id="1" parent="0"/><mxCell id="33" style="edgeStyle=none;html=1;exitX=1;exitY=0.5;exitDx=0;exitDy=0;entryX=0;entryY=0.5;entryDx=0;entryDy=0;" parent="1" source="2" target="3" edge="1"><mxGeometry relative="1" as="geometry"/></mxCell><mxCell id="35" style="edgeStyle=none;html=1;exitX=0.5;exitY=1;exitDx=0;exitDy=0;entryX=0.5;entryY=0;entryDx=0;entryDy=0;" parent="1" source="2" target="6" edge="1"><mxGeometry relative="1" as="geometry"/></mxCell><mxCell id="2" value="Game" style="swimlane;whiteSpace=wrap;html=1;" parent="1" vertex="1"><mxGeometry x="200" y="50" width="200" height="200" as="geometry"/></mxCell><mxCell id="5" value="Spielaufruf wird gestartet&lt;br&gt;-&amp;gt; Menü wird aufgerufen&lt;br&gt;-&amp;gt;Feld wird erstellt&lt;br&gt;-&amp;gt;wird gespiel bis zum Ende&lt;br&gt;&lt;br&gt;" style="text;html=1;align=center;verticalAlign=middle;resizable=0;points=[];autosize=1;strokeColor=none;fillColor=none;" parent="2" vertex="1"><mxGeometry x="15" y="35" width="170" height="90" as="geometry"/></mxCell><mxCell id="34" style="edgeStyle=none;html=1;exitX=1;exitY=0.5;exitDx=0;exitDy=0;entryX=0;entryY=0.5;entryDx=0;entryDy=0;" parent="1" source="3" edge="1" target="19"><mxGeometry relative="1" as="geometry"><mxPoint x="780" y="270" as="targetPoint"/></mxGeometry></mxCell><mxCell id="3" value="Field" style="swimlane;whiteSpace=wrap;html=1;" parent="1" vertex="1"><mxGeometry x="440" y="60" width="200" height="200" as="geometry"/></mxCell><mxCell id="17" value="2 Dimensional Array m_Field&lt;br&gt;&lt;br&gt;Methode: Prüfen ob Platz(x)&lt;br&gt;Methode: Stein Legen&lt;br&gt;Methode: get m_Field" style="text;html=1;align=center;verticalAlign=middle;resizable=0;points=[];autosize=1;strokeColor=none;fillColor=none;" parent="3" vertex="1"><mxGeometry x="10" y="40" width="180" height="90" as="geometry"/></mxCell><mxCell id="6" value="Player" style="swimlane;fontStyle=0;childLayout=stackLayout;horizontal=1;startSize=30;horizontalStack=0;resizeParent=1;resizeParentMax=0;resizeLast=0;collapsible=1;marginBottom=0;whiteSpace=wrap;html=1;" parent="1" vertex="1"><mxGeometry x="210" y="290" width="140" height="120" as="geometry"/></mxCell><mxCell id="7" value="string m_Name" style="text;strokeColor=none;fillColor=none;align=left;verticalAlign=middle;spacingLeft=4;spacingRight=4;overflow=hidden;points=[[0,0.5],[1,0.5]];portConstraint=eastwest;rotatable=0;whiteSpace=wrap;html=1;" parent="6" vertex="1"><mxGeometry y="30" width="140" height="30" as="geometry"/></mxCell><mxCell id="30" value="bool m_Colour" style="text;strokeColor=none;fillColor=none;align=left;verticalAlign=middle;spacingLeft=4;spacingRight=4;overflow=hidden;points=[[0,0.5],[1,0.5]];portConstraint=eastwest;rotatable=0;whiteSpace=wrap;html=1;" parent="6" vertex="1"><mxGeometry y="60" width="140" height="30" as="geometry"/></mxCell><mxCell id="28" value="&lt;span style=&quot;text-align: center;&quot;&gt;Virtual Methode: Stein Legen(Field, x)&lt;/span&gt;" style="text;strokeColor=none;fillColor=none;align=left;verticalAlign=middle;spacingLeft=4;spacingRight=4;overflow=hidden;points=[[0,0.5],[1,0.5]];portConstraint=eastwest;rotatable=0;whiteSpace=wrap;html=1;" parent="6" vertex="1"><mxGeometry y="90" width="140" height="30" as="geometry"/></mxCell><mxCell id="11" value="Human" style="swimlane;fontStyle=0;childLayout=stackLayout;horizontal=1;startSize=30;horizontalStack=0;resizeParent=1;resizeParentMax=0;resizeLast=0;collapsible=1;marginBottom=0;whiteSpace=wrap;html=1;" parent="1" vertex="1"><mxGeometry x="530" y="310" width="140" height="120" as="geometry"/></mxCell><mxCell id="12" value="Methode: Stein Legen(Field, x)" style="text;strokeColor=none;fillColor=none;align=left;verticalAlign=middle;spacingLeft=4;spacingRight=4;overflow=hidden;points=[[0,0.5],[1,0.5]];portConstraint=eastwest;rotatable=0;whiteSpace=wrap;html=1;" parent="11" vertex="1"><mxGeometry y="30" width="140" height="30" as="geometry"/></mxCell><mxCell id="13" value="Item 2" style="text;strokeColor=none;fillColor=none;align=left;verticalAlign=middle;spacingLeft=4;spacingRight=4;overflow=hidden;points=[[0,0.5],[1,0.5]];portConstraint=eastwest;rotatable=0;whiteSpace=wrap;html=1;" parent="11" vertex="1"><mxGeometry y="60" width="140" height="30" as="geometry"/></mxCell><mxCell id="14" value="Item 3" style="text;strokeColor=none;fillColor=none;align=left;verticalAlign=middle;spacingLeft=4;spacingRight=4;overflow=hidden;points=[[0,0.5],[1,0.5]];portConstraint=eastwest;rotatable=0;whiteSpace=wrap;html=1;" parent="11" vertex="1"><mxGeometry y="90" width="140" height="30" as="geometry"/></mxCell><mxCell id="18" value="Gui Field" style="swimlane;fontStyle=0;childLayout=stackLayout;horizontal=1;startSize=30;horizontalStack=0;resizeParent=1;resizeParentMax=0;resizeLast=0;collapsible=1;marginBottom=0;whiteSpace=wrap;html=1;" parent="1" vertex="1"><mxGeometry x="740" y="60" width="210" height="60" as="geometry"/></mxCell><mxCell id="19" value="Methode: Printfield(Field)" style="text;strokeColor=none;fillColor=none;align=left;verticalAlign=middle;spacingLeft=4;spacingRight=4;overflow=hidden;points=[[0,0.5],[1,0.5]];portConstraint=eastwest;rotatable=0;whiteSpace=wrap;html=1;" parent="18" vertex="1"><mxGeometry y="30" width="210" height="30" as="geometry"/></mxCell><mxCell id="27" style="edgeStyle=none;html=1;" parent="1" source="23" edge="1"><mxGeometry relative="1" as="geometry"><mxPoint x="200" y="260" as="targetPoint"/></mxGeometry></mxCell><mxCell id="32" style="edgeStyle=none;html=1;exitX=0.537;exitY=1.061;exitDx=0;exitDy=0;entryX=-0.026;entryY=-0.025;entryDx=0;entryDy=0;entryPerimeter=0;exitPerimeter=0;" parent="1" source="24" target="28" edge="1"><mxGeometry relative="1" as="geometry"/></mxCell><mxCell id="23" value="Menu" style="swimlane;fontStyle=0;childLayout=stackLayout;horizontal=1;startSize=30;horizontalStack=0;resizeParent=1;resizeParentMax=0;resizeLast=0;collapsible=1;marginBottom=0;whiteSpace=wrap;html=1;" parent="1" vertex="1"><mxGeometry x="10" y="100" width="140" height="60" as="geometry"/></mxCell><mxCell id="24" value="Mode Switch Player Choice" style="text;strokeColor=none;fillColor=none;align=left;verticalAlign=middle;spacingLeft=4;spacingRight=4;overflow=hidden;points=[[0,0.5],[1,0.5]];portConstraint=eastwest;rotatable=0;whiteSpace=wrap;html=1;" parent="23" vertex="1"><mxGeometry y="30" width="140" height="30" as="geometry"/></mxCell><mxCell id="15" value="" style="endArrow=classic;html=1;" parent="1" target="28" edge="1"><mxGeometry relative="1" as="geometry"><mxPoint x="520" y="360" as="sourcePoint"/><mxPoint x="284.5454545454545" y="528" as="targetPoint"/></mxGeometry></mxCell><mxCell id="16" value="erbt von" style="edgeLabel;resizable=0;html=1;align=center;verticalAlign=middle;" parent="15" connectable="0" vertex="1"><mxGeometry relative="1" as="geometry"/></mxCell><mxCell id="37" style="edgeStyle=none;html=1;exitX=1;exitY=0.5;exitDx=0;exitDy=0;entryX=0.5;entryY=1;entryDx=0;entryDy=0;" parent="1" source="30" target="3" edge="1"><mxGeometry relative="1" as="geometry"><mxPoint x="520" y="400" as="targetPoint"/></mxGeometry></mxCell><mxCell id="38" value="Game" style="swimlane;fontStyle=1;align=center;verticalAlign=top;childLayout=stackLayout;horizontal=1;startSize=26;horizontalStack=0;resizeParent=1;resizeParentMax=0;resizeLast=0;collapsible=1;marginBottom=0;" parent="1" vertex="1"><mxGeometry x="280" y="560" width="160" height="86" as="geometry"/></mxCell><mxCell id="39" value="+ field: type" style="text;strokeColor=none;fillColor=none;align=left;verticalAlign=top;spacingLeft=4;spacingRight=4;overflow=hidden;rotatable=0;points=[[0,0.5],[1,0.5]];portConstraint=eastwest;" parent="38" vertex="1"><mxGeometry y="26" width="160" height="26" as="geometry"/></mxCell><mxCell id="40" value="" style="line;strokeWidth=1;fillColor=none;align=left;verticalAlign=middle;spacingTop=-1;spacingLeft=3;spacingRight=3;rotatable=0;labelPosition=right;points=[];portConstraint=eastwest;strokeColor=inherit;" parent="38" vertex="1"><mxGeometry y="52" width="160" height="8" as="geometry"/></mxCell><mxCell id="41" value="+ method(type): type" style="text;strokeColor=none;fillColor=none;align=left;verticalAlign=top;spacingLeft=4;spacingRight=4;overflow=hidden;rotatable=0;points=[[0,0.5],[1,0.5]];portConstraint=eastwest;" parent="38" vertex="1"><mxGeometry y="60" width="160" height="26" as="geometry"/></mxCell><mxCell id="42" value="Menu" style="swimlane;fontStyle=1;align=center;verticalAlign=top;childLayout=stackLayout;horizontal=1;startSize=26;horizontalStack=0;resizeParent=1;resizeParentMax=0;resizeLast=0;collapsible=1;marginBottom=0;" parent="1" vertex="1"><mxGeometry x="40" y="560" width="200" height="70" as="geometry"/></mxCell><mxCell id="44" value="" style="line;strokeWidth=1;fillColor=none;align=left;verticalAlign=middle;spacingTop=-1;spacingLeft=3;spacingRight=3;rotatable=0;labelPosition=right;points=[];portConstraint=eastwest;strokeColor=inherit;" parent="42" vertex="1"><mxGeometry y="26" width="200" height="8" as="geometry"/></mxCell><mxCell id="45" value="+ StartMenu: static int &#10;+ GeneratePlayer: static Player" style="text;strokeColor=none;fillColor=none;align=left;verticalAlign=top;spacingLeft=4;spacingRight=4;overflow=hidden;rotatable=0;points=[[0,0.5],[1,0.5]];portConstraint=eastwest;" parent="42" vertex="1"><mxGeometry y="34" width="200" height="36" as="geometry"/></mxCell><mxCell id="46" value="Field" style="swimlane;fontStyle=1;align=center;verticalAlign=top;childLayout=stackLayout;horizontal=1;startSize=26;horizontalStack=0;resizeParent=1;resizeParentMax=0;resizeLast=0;collapsible=1;marginBottom=0;" vertex="1" parent="1"><mxGeometry x="480" y="560" width="200" height="200" as="geometry"><mxRectangle x="490" y="520" width="70" height="30" as="alternateBounds"/></mxGeometry></mxCell><mxCell id="47" value="- ROW : const int&#10;- COLUMN : const int &#10;- field : vector&lt;vector&lt;char&gt;&gt;" style="text;strokeColor=none;fillColor=none;align=left;verticalAlign=top;spacingLeft=4;spacingRight=4;overflow=hidden;rotatable=0;points=[[0,0.5],[1,0.5]];portConstraint=eastwest;" vertex="1" parent="46"><mxGeometry y="26" width="200" height="44" as="geometry"/></mxCell><mxCell id="48" value="" style="line;strokeWidth=1;fillColor=none;align=left;verticalAlign=middle;spacingTop=-1;spacingLeft=3;spacingRight=3;rotatable=0;labelPosition=right;points=[];portConstraint=eastwest;strokeColor=inherit;" vertex="1" parent="46"><mxGeometry y="70" width="200" height="8" as="geometry"/></mxCell><mxCell id="49" value="+ Field()&#10;+ getField()&#10;+ getRow()&#10;+ getColumn()&#10;+ layCoin(column:int, coin:char) &#10;: void&#10;+ validMove(column:int) : bool&#10;+ winCondition(x:char) : bool" style="text;strokeColor=none;fillColor=none;align=left;verticalAlign=top;spacingLeft=4;spacingRight=4;overflow=hidden;rotatable=0;points=[[0,0.5],[1,0.5]];portConstraint=eastwest;" vertex="1" parent="46"><mxGeometry y="78" width="200" height="122" as="geometry"/></mxCell><mxCell id="50" value="GuiField" style="swimlane;fontStyle=1;align=center;verticalAlign=top;childLayout=stackLayout;horizontal=1;startSize=26;horizontalStack=0;resizeParent=1;resizeParentMax=0;resizeLast=0;collapsible=1;marginBottom=0;" vertex="1" parent="1"><mxGeometry x="720" y="560" width="200" height="60" as="geometry"/></mxCell><mxCell id="52" value="" style="line;strokeWidth=1;fillColor=none;align=left;verticalAlign=middle;spacingTop=-1;spacingLeft=3;spacingRight=3;rotatable=0;labelPosition=right;points=[];portConstraint=eastwest;strokeColor=inherit;" vertex="1" parent="50"><mxGeometry y="26" width="200" height="8" as="geometry"/></mxCell><mxCell id="53" value="+ printField(field:&amp;Field) : static void" style="text;strokeColor=none;fillColor=none;align=left;verticalAlign=top;spacingLeft=4;spacingRight=4;overflow=hidden;rotatable=0;points=[[0,0.5],[1,0.5]];portConstraint=eastwest;" vertex="1" parent="50"><mxGeometry y="34" width="200" height="26" as="geometry"/></mxCell><mxCell id="54" value="HorizontalBot" style="swimlane;fontStyle=1;align=center;verticalAlign=top;childLayout=stackLayout;horizontal=1;startSize=26;horizontalStack=0;resizeParent=1;resizeParentMax=0;resizeLast=0;collapsible=1;marginBottom=0;" vertex="1" parent="1"><mxGeometry x="520" y="840" width="160" height="86" as="geometry"/></mxCell><mxCell id="55" value="+ field: type" style="text;strokeColor=none;fillColor=none;align=left;verticalAlign=top;spacingLeft=4;spacingRight=4;overflow=hidden;rotatable=0;points=[[0,0.5],[1,0.5]];portConstraint=eastwest;" vertex="1" parent="54"><mxGeometry y="26" width="160" height="26" as="geometry"/></mxCell><mxCell id="56" value="" style="line;strokeWidth=1;fillColor=none;align=left;verticalAlign=middle;spacingTop=-1;spacingLeft=3;spacingRight=3;rotatable=0;labelPosition=right;points=[];portConstraint=eastwest;strokeColor=inherit;" vertex="1" parent="54"><mxGeometry y="52" width="160" height="8" as="geometry"/></mxCell><mxCell id="57" value="+ method(type): type" style="text;strokeColor=none;fillColor=none;align=left;verticalAlign=top;spacingLeft=4;spacingRight=4;overflow=hidden;rotatable=0;points=[[0,0.5],[1,0.5]];portConstraint=eastwest;" vertex="1" parent="54"><mxGeometry y="60" width="160" height="26" as="geometry"/></mxCell><mxCell id="60" value="ProBot" style="swimlane;fontStyle=1;align=center;verticalAlign=top;childLayout=stackLayout;horizontal=1;startSize=26;horizontalStack=0;resizeParent=1;resizeParentMax=0;resizeLast=0;collapsible=1;marginBottom=0;" vertex="1" parent="1"><mxGeometry x="480" y="960" width="160" height="86" as="geometry"/></mxCell><mxCell id="61" value="+ field: type" style="text;strokeColor=none;fillColor=none;align=left;verticalAlign=top;spacingLeft=4;spacingRight=4;overflow=hidden;rotatable=0;points=[[0,0.5],[1,0.5]];portConstraint=eastwest;" vertex="1" parent="60"><mxGeometry y="26" width="160" height="26" as="geometry"/></mxCell><mxCell id="62" value="" style="line;strokeWidth=1;fillColor=none;align=left;verticalAlign=middle;spacingTop=-1;spacingLeft=3;spacingRight=3;rotatable=0;labelPosition=right;points=[];portConstraint=eastwest;strokeColor=inherit;" vertex="1" parent="60"><mxGeometry y="52" width="160" height="8" as="geometry"/></mxCell><mxCell id="63" value="+ method(type): type" style="text;strokeColor=none;fillColor=none;align=left;verticalAlign=top;spacingLeft=4;spacingRight=4;overflow=hidden;rotatable=0;points=[[0,0.5],[1,0.5]];portConstraint=eastwest;" vertex="1" parent="60"><mxGeometry y="60" width="160" height="26" as="geometry"/></mxCell><mxCell id="64" value="RandomBot" style="swimlane;fontStyle=1;align=center;verticalAlign=top;childLayout=stackLayout;horizontal=1;startSize=26;horizontalStack=0;resizeParent=1;resizeParentMax=0;resizeLast=0;collapsible=1;marginBottom=0;" vertex="1" parent="1"><mxGeometry x="40" y="840" width="160" height="86" as="geometry"/></mxCell><mxCell id="65" value="+ field: type" style="text;strokeColor=none;fillColor=none;align=left;verticalAlign=top;spacingLeft=4;spacingRight=4;overflow=hidden;rotatable=0;points=[[0,0.5],[1,0.5]];portConstraint=eastwest;" vertex="1" parent="64"><mxGeometry y="26" width="160" height="26" as="geometry"/></mxCell><mxCell id="66" value="" style="line;strokeWidth=1;fillColor=none;align=left;verticalAlign=middle;spacingTop=-1;spacingLeft=3;spacingRight=3;rotatable=0;labelPosition=right;points=[];portConstraint=eastwest;strokeColor=inherit;" vertex="1" parent="64"><mxGeometry y="52" width="160" height="8" as="geometry"/></mxCell><mxCell id="67" value="+ method(type): type" style="text;strokeColor=none;fillColor=none;align=left;verticalAlign=top;spacingLeft=4;spacingRight=4;overflow=hidden;rotatable=0;points=[[0,0.5],[1,0.5]];portConstraint=eastwest;" vertex="1" parent="64"><mxGeometry y="60" width="160" height="26" as="geometry"/></mxCell><mxCell id="68" value="VerticalBot" style="swimlane;fontStyle=1;align=center;verticalAlign=top;childLayout=stackLayout;horizontal=1;startSize=26;horizontalStack=0;resizeParent=1;resizeParentMax=0;resizeLast=0;collapsible=1;marginBottom=0;" vertex="1" parent="1"><mxGeometry x="80" y="960" width="160" height="86" as="geometry"/></mxCell><mxCell id="69" value="+ field: type" style="text;strokeColor=none;fillColor=none;align=left;verticalAlign=top;spacingLeft=4;spacingRight=4;overflow=hidden;rotatable=0;points=[[0,0.5],[1,0.5]];portConstraint=eastwest;" vertex="1" parent="68"><mxGeometry y="26" width="160" height="26" as="geometry"/></mxCell><mxCell id="70" value="" style="line;strokeWidth=1;fillColor=none;align=left;verticalAlign=middle;spacingTop=-1;spacingLeft=3;spacingRight=3;rotatable=0;labelPosition=right;points=[];portConstraint=eastwest;strokeColor=inherit;" vertex="1" parent="68"><mxGeometry y="52" width="160" height="8" as="geometry"/></mxCell><mxCell id="71" value="+ method(type): type" style="text;strokeColor=none;fillColor=none;align=left;verticalAlign=top;spacingLeft=4;spacingRight=4;overflow=hidden;rotatable=0;points=[[0,0.5],[1,0.5]];portConstraint=eastwest;" vertex="1" parent="68"><mxGeometry y="60" width="160" height="26" as="geometry"/></mxCell><mxCell id="72" value="Human" style="swimlane;fontStyle=1;align=center;verticalAlign=top;childLayout=stackLayout;horizontal=1;startSize=26;horizontalStack=0;resizeParent=1;resizeParentMax=0;resizeLast=0;collapsible=1;marginBottom=0;" vertex="1" parent="1"><mxGeometry x="275" y="900" width="170" height="60" as="geometry"><mxRectangle x="670" y="620" width="80" height="30" as="alternateBounds"/></mxGeometry></mxCell><mxCell id="74" value="" style="line;strokeWidth=1;fillColor=none;align=left;verticalAlign=middle;spacingTop=-1;spacingLeft=3;spacingRight=3;rotatable=0;labelPosition=right;points=[];portConstraint=eastwest;strokeColor=inherit;" vertex="1" parent="72"><mxGeometry y="26" width="170" height="8" as="geometry"/></mxCell><mxCell id="75" value="+ layCoin(field: Field&amp;) : void" style="text;strokeColor=none;fillColor=none;align=left;verticalAlign=top;spacingLeft=4;spacingRight=4;overflow=hidden;rotatable=0;points=[[0,0.5],[1,0.5]];portConstraint=eastwest;" vertex="1" parent="72"><mxGeometry y="34" width="170" height="26" as="geometry"/></mxCell><mxCell id="76" value="Player" style="swimlane;fontStyle=1;align=center;verticalAlign=top;childLayout=stackLayout;horizontal=1;startSize=26;horizontalStack=0;resizeParent=1;resizeParentMax=0;resizeLast=0;collapsible=1;marginBottom=0;" vertex="1" parent="1"><mxGeometry x="240" y="680" width="200" height="120" as="geometry"/></mxCell><mxCell id="77" value="+ m_Name: const string &#10;+ m_coin: const char" style="text;strokeColor=none;fillColor=none;align=left;verticalAlign=top;spacingLeft=4;spacingRight=4;overflow=hidden;rotatable=0;points=[[0,0.5],[1,0.5]];portConstraint=eastwest;" vertex="1" parent="76"><mxGeometry y="26" width="200" height="34" as="geometry"/></mxCell><mxCell id="78" value="" style="line;strokeWidth=1;fillColor=none;align=left;verticalAlign=middle;spacingTop=-1;spacingLeft=3;spacingRight=3;rotatable=0;labelPosition=right;points=[];portConstraint=eastwest;strokeColor=inherit;" vertex="1" parent="76"><mxGeometry y="60" width="200" height="8" as="geometry"/></mxCell><mxCell id="79" value="+  Player(name:string, coin:char)&#10;+  layCoin(field: Field&amp;) : virtual void" style="text;strokeColor=none;fillColor=none;align=left;verticalAlign=top;spacingLeft=4;spacingRight=4;overflow=hidden;rotatable=0;points=[[0,0.5],[1,0.5]];portConstraint=eastwest;" vertex="1" parent="76"><mxGeometry y="68" width="200" height="52" as="geometry"/></mxCell><mxCell id="96" value="" style="endArrow=none;html=1;edgeStyle=orthogonalEdgeStyle;rounded=0;shadow=0;exitX=0.447;exitY=1.027;exitDx=0;exitDy=0;exitPerimeter=0;" edge="1" parent="1" source="79"><mxGeometry relative="1" as="geometry"><mxPoint x="320" y="850" as="sourcePoint"/><mxPoint x="520" y="850" as="targetPoint"/><Array as="points"><mxPoint x="329" y="850"/></Array></mxGeometry></mxCell><mxCell id="97" value="parent" style="edgeLabel;resizable=0;html=1;align=left;verticalAlign=bottom;" connectable="0" vertex="1" parent="96"><mxGeometry x="-1" relative="1" as="geometry"><mxPoint y="19" as="offset"/></mxGeometry></mxCell><mxCell id="98" value="child" style="edgeLabel;resizable=0;html=1;align=right;verticalAlign=bottom;" connectable="0" vertex="1" parent="96"><mxGeometry x="1" relative="1" as="geometry"/></mxCell><mxCell id="99" value="" style="endArrow=none;html=1;edgeStyle=orthogonalEdgeStyle;rounded=0;shadow=0;exitX=0.444;exitY=1.018;exitDx=0;exitDy=0;exitPerimeter=0;" edge="1" parent="1" source="79" target="72"><mxGeometry relative="1" as="geometry"><mxPoint x="450" y="690" as="sourcePoint"/><mxPoint x="610" y="690" as="targetPoint"/><Array as="points"><mxPoint x="330" y="801"/><mxPoint x="330" y="850"/><mxPoint x="360" y="850"/></Array></mxGeometry></mxCell><mxCell id="101" value="child" style="edgeLabel;resizable=0;html=1;align=right;verticalAlign=bottom;" connectable="0" vertex="1" parent="99"><mxGeometry x="1" relative="1" as="geometry"/></mxCell><mxCell id="102" value="" style="endArrow=none;html=1;edgeStyle=orthogonalEdgeStyle;rounded=0;shadow=0;entryX=0.13;entryY=-0.006;entryDx=0;entryDy=0;entryPerimeter=0;" edge="1" parent="1" target="60"><mxGeometry relative="1" as="geometry"><mxPoint x="330" y="800" as="sourcePoint"/><mxPoint x="620" y="925.52" as="targetPoint"/><Array as="points"><mxPoint x="330" y="850"/><mxPoint x="501" y="850"/></Array></mxGeometry></mxCell><mxCell id="104" value="child" style="edgeLabel;resizable=0;html=1;align=right;verticalAlign=bottom;" connectable="0" vertex="1" parent="102"><mxGeometry x="1" relative="1" as="geometry"/></mxCell><mxCell id="105" value="" style="endArrow=none;html=1;edgeStyle=orthogonalEdgeStyle;rounded=0;shadow=0;exitX=0.449;exitY=1.003;exitDx=0;exitDy=0;exitPerimeter=0;entryX=1.001;entryY=0.138;entryDx=0;entryDy=0;entryPerimeter=0;" edge="1" parent="1" source="79" target="64"><mxGeometry relative="1" as="geometry"><mxPoint x="240" y="870" as="sourcePoint"/><mxPoint x="400" y="870" as="targetPoint"/><Array as="points"><mxPoint x="330" y="850"/><mxPoint x="200" y="850"/></Array></mxGeometry></mxCell><mxCell id="107" value="child" style="edgeLabel;resizable=0;html=1;align=right;verticalAlign=bottom;" connectable="0" vertex="1" parent="105"><mxGeometry x="1" relative="1" as="geometry"><mxPoint x="30" y="-2" as="offset"/></mxGeometry></mxCell><mxCell id="108" value="" style="endArrow=none;html=1;edgeStyle=orthogonalEdgeStyle;rounded=0;shadow=0;entryX=0.875;entryY=0;entryDx=0;entryDy=0;entryPerimeter=0;" edge="1" parent="1" target="68"><mxGeometry relative="1" as="geometry"><mxPoint x="330" y="800" as="sourcePoint"/><mxPoint x="400" y="870" as="targetPoint"/><Array as="points"><mxPoint x="330" y="850"/><mxPoint x="220" y="850"/></Array></mxGeometry></mxCell><mxCell id="109" value="parent" style="edgeLabel;resizable=0;html=1;align=left;verticalAlign=bottom;" connectable="0" vertex="1" parent="108"><mxGeometry x="-1" relative="1" as="geometry"/></mxCell><mxCell id="110" value="child" style="edgeLabel;resizable=0;html=1;align=right;verticalAlign=bottom;" connectable="0" vertex="1" parent="108"><mxGeometry x="1" relative="1" as="geometry"/></mxCell><mxCell id="111" value="" style="endArrow=open;endFill=1;endSize=12;html=1;rounded=0;shadow=0;exitX=0.998;exitY=0.074;exitDx=0;exitDy=0;exitPerimeter=0;entryX=0;entryY=0.25;entryDx=0;entryDy=0;" edge="1" parent="1" source="46" target="50"><mxGeometry width="160" relative="1" as="geometry"><mxPoint x="600" y="640" as="sourcePoint"/><mxPoint x="760" y="640" as="targetPoint"/></mxGeometry></mxCell><mxCell id="112" value="" style="endArrow=open;endFill=1;endSize=12;html=1;rounded=0;shadow=0;exitX=1.004;exitY=0.177;exitDx=0;exitDy=0;exitPerimeter=0;entryX=-0.007;entryY=0.155;entryDx=0;entryDy=0;entryPerimeter=0;" edge="1" parent="1" source="42" target="38"><mxGeometry width="160" relative="1" as="geometry"><mxPoint x="300" y="320" as="sourcePoint"/><mxPoint x="280" y="580" as="targetPoint"/></mxGeometry></mxCell><mxCell id="113" value="" style="endArrow=open;endFill=1;endSize=12;html=1;rounded=0;shadow=0;exitX=1.011;exitY=0.19;exitDx=0;exitDy=0;exitPerimeter=0;" edge="1" parent="1" source="42"><mxGeometry width="160" relative="1" as="geometry"><mxPoint x="300" y="730" as="sourcePoint"/><mxPoint x="280" y="670" as="targetPoint"/></mxGeometry></mxCell><mxCell id="114" value="" style="endArrow=open;endFill=1;endSize=12;html=1;rounded=0;shadow=0;exitX=0.381;exitY=0.992;exitDx=0;exitDy=0;exitPerimeter=0;entryX=0.5;entryY=0;entryDx=0;entryDy=0;" edge="1" parent="1" source="41" target="76"><mxGeometry width="160" relative="1" as="geometry"><mxPoint x="290" y="730" as="sourcePoint"/><mxPoint x="450" y="730" as="targetPoint"/></mxGeometry></mxCell><mxCell id="115" value="" style="endArrow=open;endFill=1;endSize=12;html=1;rounded=0;shadow=0;exitX=1.006;exitY=0.156;exitDx=0;exitDy=0;exitPerimeter=0;entryX=0;entryY=0.067;entryDx=0;entryDy=0;entryPerimeter=0;" edge="1" parent="1" source="38" target="46"><mxGeometry width="160" relative="1" as="geometry"><mxPoint x="290" y="730" as="sourcePoint"/><mxPoint x="450" y="730" as="targetPoint"/></mxGeometry></mxCell><mxCell id="116" value="" style="endArrow=open;endFill=1;endSize=12;html=1;rounded=0;shadow=0;exitX=0.995;exitY=0.125;exitDx=0;exitDy=0;exitPerimeter=0;entryX=0.005;entryY=0;entryDx=0;entryDy=0;entryPerimeter=0;" edge="1" parent="1" source="76" target="47"><mxGeometry width="160" relative="1" as="geometry"><mxPoint x="290" y="730" as="sourcePoint"/><mxPoint x="470" y="590" as="targetPoint"/></mxGeometry></mxCell></root></mxGraphModel></diagram></mxfile>